<?xml version="1.0" encoding="UTF-8" standalone="no"?>
<!-- Created with Inkscape (http://www.inkscape.org/) -->

<svg
   xmlns:dc="http://purl.org/dc/elements/1.1/"
   xmlns:cc="http://creativecommons.org/ns#"
   xmlns:rdf="http://www.w3.org/1999/02/22-rdf-syntax-ns#"
   xmlns:svg="http://www.w3.org/2000/svg"
   xmlns="http://www.w3.org/2000/svg"
   xmlns:sodipodi="http://sodipodi.sourceforge.net/DTD/sodipodi-0.dtd"
   xmlns:inkscape="http://www.inkscape.org/namespaces/inkscape"
   id="svg2"
   version="1.1"
   inkscape:version="0.91 r13725"
   xml:space="preserve"
   width="1530"
   height="990"
   viewBox="0 0 1530 990"
   sodipodi:docname="interana_logo.svg"><metadata
     id="metadata8"><rdf:RDF><cc:Work
         rdf:about=""><dc:format>image/svg+xml</dc:format><dc:type
           rdf:resource="http://purl.org/dc/dcmitype/StillImage" /><dc:title></dc:title></cc:Work></rdf:RDF></metadata><defs
     id="defs6"><clipPath
       clipPathUnits="userSpaceOnUse"
       id="clipPath18"><path
         d="M 0,792 1224,792 1224,0 0,0 0,792 Z"
         id="path20"
         inkscape:connector-curvature="0" /></clipPath></defs><sodipodi:namedview
     pagecolor="#ffffff"
     bordercolor="#666666"
     borderopacity="1"
     objecttolerance="10"
     gridtolerance="10"
     guidetolerance="10"
     inkscape:pageopacity="0"
     inkscape:pageshadow="2"
     inkscape:window-width="1195"
     inkscape:window-height="538"
     id="namedview4"
     showgrid="false"
     inkscape:zoom="0.23838384"
     inkscape:cx="207.07627"
     inkscape:cy="495"
     inkscape:window-x="0"
     inkscape:window-y="23"
     inkscape:window-maximized="0"
     inkscape:current-layer="g10" /><g
     id="g10"
     inkscape:groupmode="layer"
     inkscape:label="Interana_Logo_Black"
     transform="matrix(1.25,0,0,-1.25,0,990)"><path
       d="m 92.802,330.177 -41.73,0 0,130.78 41.73,0 0,-130.78 z"
       style="fill:#1a1617;fill-opacity:1;fill-rule:nonzero;stroke:none"
       id="path12"
       inkscape:connector-curvature="0" /><g
       id="g14"><g
         id="g16"
         clip-path="url(#clipPath18)"><g
           id="g22"
           transform="translate(249.4126,416.0283)"><path
             d="m 0,0 0,-85.852 -41.728,0 0,71.055 c 0,15.465 -7.731,24.13 -20.663,24.13 -11.596,0 -21.198,-7.864 -21.198,-24.796 l 0,-70.389 -41.728,0 0,130.781 39.998,0 0,-16.398 c 8.263,13.732 21.461,19.996 38.924,19.996 C -20.263,48.527 0,30.264 0,0"
             style="fill:#1a1617;fill-opacity:1;fill-rule:nonzero;stroke:none"
             id="path24"
             inkscape:connector-curvature="0" /></g><g
           id="g26"
           transform="translate(370.6313,424.0283)"><path
             d="m 0,0 -44.66,0 0,-38.26 c 0,-15.064 7.998,-20.133 18.53,-20.133 7.732,0 16.131,4.268 22.664,8.133 l 14.397,-32.525 c -12.264,-8.535 -25.33,-14.535 -46.393,-14.535 -35.061,0 -50.929,20.933 -50.929,53.728 l 0,43.592 -24.395,0 0,36.929 24.395,0 0,38.128 41.731,0 0,-38.128 44.66,0 L 0,0 Z"
             style="fill:#1a1617;fill-opacity:1;fill-rule:nonzero;stroke:none"
             id="path28"
             inkscape:connector-curvature="0" /></g><g
           id="g30"
           transform="translate(424.7544,409.0967)"><path
             d="M 0,0 47.596,0 C 44.262,13.065 36.129,19.997 23.999,19.997 11.065,19.997 3.2,12.932 0,0 m 89.323,-13.465 c 0,-4.265 -0.266,-10.131 -0.8,-12.931 l -88.655,0 c 3.466,-14.264 13.598,-20.93 27.996,-20.93 9.733,0 20.265,4 28.53,11.465 L 83.323,-60.922 C 69.727,-74.521 49.86,-82.389 25.731,-82.389 c -41.062,0 -68.923,27.332 -68.923,68.125 0,41.194 27.328,69.723 67.057,69.723 38.795,0 65.323,-27.996 65.458,-68.924"
             style="fill:#1a1617;fill-opacity:1;fill-rule:nonzero;stroke:none"
             id="path32"
             inkscape:connector-curvature="0" /></g><g
           id="g34"
           transform="translate(625.3301,462.5566)"><path
             d="m 0,0 -3.865,-41.595 c -5.598,1.867 -13.465,3.467 -20.93,3.467 -14.8,0 -23.865,-7.332 -23.865,-23.596 l 0,-70.656 -41.727,0 0,130.78 39.994,0 0,-15.064 c 7.599,12.665 19.73,18.663 35.729,18.663 C -8.531,1.999 -3.199,0.933 0,0"
             style="fill:#1a1617;fill-opacity:1;fill-rule:nonzero;stroke:none"
             id="path36"
             inkscape:connector-curvature="0" /></g><g
           id="g38"
           transform="translate(1018.0859,416.0283)"><path
             d="m 0,0 0,-85.852 -41.727,0 0,71.055 c 0,15.465 -7.732,24.13 -20.664,24.13 -11.597,0 -21.199,-7.864 -21.199,-24.796 l 0,-70.389 -41.726,0 0,130.781 39.996,0 0,-16.398 c 8.263,13.732 21.463,19.996 38.925,19.996 C -20.262,48.527 0,30.264 0,0"
             style="fill:#1a1617;fill-opacity:1;fill-rule:nonzero;stroke:none"
             id="path40"
             inkscape:connector-curvature="0" /></g><g
           id="g42"
           transform="translate(1109.7422,365.6357)"><path
             d="m 0,0 c -16.664,0 -27.861,12.934 -27.861,29.996 0,17.067 11.197,29.998 27.861,29.998 16.396,0 27.998,-12.666 27.998,-29.998 C 27.998,12.668 16.396,0 0,0 m 27.598,95.321 0,-18.632 C 23.432,87.377 12.369,98.92 -9.865,98.92 c -35.063,0 -60.926,-30.395 -60.926,-68.79 0,-38.661 25.863,-69.058 60.795,-69.058 22.232,0 33.428,11.412 37.594,22.1 l 0,-18.631 40.394,0 0,130.78 -40.394,0 z"
             style="fill:#1a1617;fill-opacity:1;fill-rule:nonzero;stroke:none"
             id="path44"
             inkscape:connector-curvature="0" /></g><g
           id="g46"
           transform="translate(793.4844,365.6357)"><path
             d="m 0,0 c -16.666,0 -27.863,12.934 -27.863,29.996 0,17.067 11.197,29.998 27.863,29.998 16.398,0 27.996,-12.666 27.996,-29.998 C 27.996,12.668 16.398,0 0,0 m 27.596,95.321 0,-18.632 C 23.432,87.377 12.369,98.92 -9.867,98.92 c -35.063,0 -60.926,-30.395 -60.926,-68.79 0,-38.661 25.863,-69.058 60.795,-69.058 22.232,0 33.43,11.412 37.594,22.1 l 0,-18.631 40.394,0 0,130.78 -40.394,0 z"
             style="fill:#1a1617;fill-opacity:1;fill-rule:nonzero;stroke:none"
             id="path48"
             inkscape:connector-curvature="0" /></g><g
           id="g50"
           transform="translate(96.6655,504.415)"><path
             d="m 0,0 c 0,-14 -10.93,-24.797 -24.928,-24.797 -14.133,0 -24.931,10.797 -24.931,24.797 0,14.129 10.798,25.062 24.931,25.062 C -10.93,25.062 0,14.129 0,0"
             style="fill:#1a1617;fill-opacity:1;fill-rule:nonzero;stroke:none"
             id="path52"
             inkscape:connector-curvature="0" /></g><path
           d="m 680.965,199.476 -13.908,0 0,392.24 13.908,0 0,-392.24 z"
           style="fill:#1a1617;fill-opacity:1;fill-rule:nonzero;stroke:none"
           id="path54"
           inkscape:connector-curvature="0" /></g></g></g></svg>