<?xml version="1.0" encoding="utf-8"?>
<!-- Generator: Adobe Illustrator 16.0.3, SVG Export Plug-In . SVG Version: 6.00 Build 0)  -->
<!DOCTYPE svg PUBLIC "-//W3C//DTD SVG 1.1//EN" "http://www.w3.org/Graphics/SVG/1.1/DTD/svg11.dtd">
<svg version="1.1" xmlns="http://www.w3.org/2000/svg" xmlns:xlink="http://www.w3.org/1999/xlink" x="0px" y="0px" width="500px"
	 height="78px" viewBox="0 0 500 78" enable-background="new 0 0 500 78" xml:space="preserve">
<g id="Layer_1" display="none">
	<rect display="inline" fill="#0000FF" width="500" height="78"/>
</g>
<g id="Layer_2">
	<path fill="#F0F0F0" d="M97,9.903c-3.459,1.534-7.177,2.571-11.079,3.038c3.982-2.387,7.042-6.167,8.481-10.671
		c-3.728,2.209-7.856,3.815-12.25,4.68c-3.519-3.749-8.532-6.091-14.08-6.091c-10.653,0-19.291,8.636-19.291,19.29
		c0,1.512,0.17,2.984,0.499,4.396C33.249,23.739,19.036,16.06,9.521,4.389c-1.661,2.849-2.612,6.163-2.612,9.698
		c0,6.693,3.406,12.598,8.582,16.056c-3.162-0.101-6.136-0.968-8.736-2.413c-0.002,0.081-0.002,0.161-0.002,0.243
		c0,9.346,6.649,17.143,15.474,18.915c-1.619,0.441-3.323,0.677-5.083,0.677c-1.242,0-2.451-0.119-3.629-0.348
		c2.455,7.665,9.579,13.243,18.02,13.397c-6.602,5.176-14.919,8.26-23.957,8.26c-1.557,0-3.093-0.093-4.602-0.272
		c8.537,5.475,18.677,8.668,29.57,8.668c35.482,0,54.885-29.395,54.885-54.884c0-0.836-0.019-1.668-0.057-2.496
		C91.143,17.169,94.413,13.772,97,9.903z"/>
	<path fill-rule="evenodd" clip-rule="evenodd" fill="#F0F0F0" d="M187.5,32.731l-0.641-1.333l-1.078-0.846
		c-1.409-1.103-8.536,0.076-10.458-1.667c-1.359-1.255-1.564-3.512-1.975-6.562c-0.769-5.922-1.255-6.23-2.179-8.229
		c-3.358-7.127-12.459-12.485-18.715-13.229h-16.945c-13.331,0-24.227,10.92-24.227,24.251v28.278c0,13.305,10.896,24.2,24.227,24.2
		h27.841c13.331,0,24.149-10.896,24.227-24.2l0.153-19.587L187.5,32.731z M135.816,20.682h13.434c2.564,0,4.64,2.077,4.64,4.616
		c0,2.537-2.076,4.639-4.64,4.639h-13.434c-2.563,0-4.64-2.102-4.64-4.639C131.176,22.758,133.253,20.682,135.816,20.682z
		 M163.12,57.649h-27.304c-2.563,0-4.64-2.103-4.64-4.614c0-2.538,2.077-4.614,4.64-4.614h27.304c2.538,0,4.614,2.076,4.614,4.614
		C167.734,55.547,165.658,57.649,163.12,57.649z"/>
	<path fill="#F0F0F0" d="M219.091,49.285l-0.795,2.771c0,0-0.208,1.001,0.736,1.177c0.986-0.019,0.905-0.938,0.836-1.238
		L219.091,49.285L219.091,49.285z M219.091,49.285"/>
	<path fill="#F0F0F0" d="M242.615,33.718c0,3.627-2.042,6.568-4.562,6.568c-2.521,0-4.564-2.94-4.564-6.568
		c0-3.628,2.043-6.568,4.564-6.568C240.572,27.15,242.615,30.09,242.615,33.718L242.615,33.718z M242.615,33.718"/>
	<path fill="#F0F0F0" d="M267.095,33.718c0,3.627-2.044,6.568-4.564,6.568c-2.52,0-4.562-2.94-4.562-6.568
		c0-3.628,2.042-6.568,4.562-6.568C265.051,27.15,267.095,30.09,267.095,33.718L267.095,33.718z M267.095,33.718"/>
	<path fill="#F0F0F0" d="M251.112,39.551c0,0.63-0.509,1.143-1.141,1.143c-0.63,0-1.141-0.513-1.141-1.143
		c0-0.631,0.51-1.142,1.141-1.142C250.603,38.409,251.112,38.919,251.112,39.551L251.112,39.551z M251.112,39.551"/>
	<path fill="#F0F0F0" d="M247.313,42.437c-0.067-0.19,0.033-0.402,0.224-0.469c0.191-0.066,0.4,0.032,0.468,0.223
		c0.293,0.83,1.08,1.387,1.958,1.387c0.877,0,1.664-0.557,1.957-1.387c0.068-0.19,0.277-0.289,0.469-0.223
		c0.19,0.066,0.291,0.278,0.224,0.469c-0.396,1.12-1.462,1.874-2.649,1.874S247.711,43.557,247.313,42.437L247.313,42.437z
		 M247.313,42.437"/>
	<path fill="#F0F0F0" d="M299.152,37.674l0.073-0.361c-8.079-1.615-16.369-1.631-21.386-1.422c0.823-2.968,1.072-6.385,1.072-10.194
		c0-5.463-2.053-9.833-5.386-13.16c0.583-1.879,1.36-6.054-0.776-11.397c0,0-3.771-1.197-12.297,4.51
		c-3.338-0.835-6.895-1.247-10.455-1.247c-3.917,0-7.875,0.499-11.566,1.512c-8.8-6.004-12.685-4.775-12.685-4.775
		c-2.536,6.341-0.968,11.036-0.491,12.202c-2.981,3.216-4.801,7.322-4.801,12.355c0,3.8,0.434,7.208,1.491,10.171
		c-5.059-0.184-13.047-0.113-20.838,1.445l0.072,0.361c7.837-1.567,15.875-1.622,20.903-1.432c0.234,0.613,0.493,1.207,0.783,1.782
		c-4.972,0.161-13.46,0.794-21.596,3.09l0.099,0.354c8.2-2.313,16.763-2.932,21.687-3.082c2.971,5.537,8.827,9.114,19.246,10.237
		c-1.479,0.993-2.988,2.683-3.598,5.541c-2.015,0.964-8.396,3.318-12.222-3.269c0,0-2.143-3.915-6.244-4.222
		c0,0-3.978-0.062-0.274,2.478c0,0,2.662,1.255,4.498,5.969c0,0,2.396,8.039,13.958,5.461v8.303c0,0-0.245,2.937-2.938,3.917
		c0,0-1.591,1.101,0.124,1.712c0,0,7.464,0.612,7.464-5.506v-9.056c0,0-0.295-3.591,1.468-4.839v14.874c0,0-0.122,3.548-1.957,4.894
		c0,0-1.225,2.203,1.467,1.592c0,0,5.14-0.733,5.385-6.73l0.117-15.052h1.234l0.119,15.052c0.245,5.997,5.384,6.73,5.384,6.73
		c2.691,0.611,1.469-1.592,1.469-1.592c-1.837-1.346-1.958-4.894-1.958-4.894V55.241c1.764,1.374,1.468,4.71,1.468,4.71v9.056
		c0,6.118,7.464,5.506,7.464,5.506c1.715-0.611,0.123-1.712,0.123-1.712c-2.69-0.98-2.936-3.917-2.936-3.917V57.016
		c0-4.629-1.951-7.081-3.855-8.376c11.11-1.101,16.443-4.689,18.901-10.262c4.864,0.132,13.624,0.726,22.002,3.09l0.099-0.354
		c-8.329-2.35-17.03-2.958-21.947-3.101c0.235-0.564,0.438-1.148,0.618-1.751C282.714,36.05,291.042,36.052,299.152,37.674z
		 M221.217,48.204c-0.438,0-0.794-0.247-0.794-0.551c0-0.305,0.356-0.552,0.794-0.552c0.44,0,0.796,0.247,0.796,0.552
		C222.014,47.957,221.657,48.204,221.217,48.204z M222.625,48.876c0-0.302,0.357-0.55,0.795-0.55c0.439,0,0.796,0.248,0.796,0.55
		c0,0.306-0.357,0.554-0.796,0.554C222.982,49.43,222.625,49.182,222.625,48.876z M223.972,50.47c0-0.306,0.356-0.552,0.796-0.552
		c0.44,0,0.795,0.246,0.795,0.552c0,0.303-0.355,0.551-0.795,0.551C224.328,51.021,223.972,50.772,223.972,50.47z M225.991,52.856
		c-0.439,0-0.795-0.248-0.795-0.552c0-0.306,0.356-0.552,0.795-0.552c0.44,0,0.796,0.246,0.796,0.552
		C226.787,52.608,226.432,52.856,225.991,52.856z M227.338,54.568c-0.439,0-0.796-0.246-0.796-0.549
		c0-0.307,0.357-0.554,0.796-0.554c0.439,0,0.796,0.247,0.796,0.554C228.134,54.322,227.777,54.568,227.338,54.568z M229.174,56.039
		c-0.438,0-0.795-0.248-0.795-0.554c0-0.302,0.356-0.55,0.795-0.55c0.44,0,0.796,0.248,0.796,0.55
		C229.97,55.791,229.614,56.039,229.174,56.039z M231.744,57.016c-0.439,0-0.795-0.246-0.795-0.549c0-0.305,0.356-0.553,0.795-0.553
		c0.44,0,0.796,0.248,0.796,0.553C232.541,56.77,232.185,57.016,231.744,57.016z M234.303,57.016c-0.44,0-0.796-0.246-0.796-0.549
		c0-0.305,0.356-0.553,0.796-0.553c0.439,0,0.794,0.248,0.794,0.553C235.098,56.77,234.742,57.016,234.303,57.016z M236.9,56.59
		c-0.441,0-0.797-0.245-0.797-0.549c0-0.306,0.356-0.552,0.797-0.552c0.439,0,0.795,0.246,0.795,0.552
		C237.695,56.345,237.339,56.59,236.9,56.59z M249.908,46.573c-12.113,0-21.931-1.822-21.931-13.527
		c0-2.803,1.381-5.404,3.745-7.564c3.942-3.599,10.616-1.693,18.186-1.693c7.54,0,14.187-1.925,18.136,1.649
		c2.393,2.168,3.793,4.787,3.793,7.607C271.837,46.218,262.019,46.573,249.908,46.573z"/>
	<g>
		<path fill="#F0F0F0" d="M450.37,43.922c-0.402,0.01-0.826-0.072-1.262-0.305c-13.813-7.366-27.627-14.733-41.44-22.101v42.817h86
			V21.199c-14.013,7.473-28.023,14.946-42.036,22.418C451.196,43.85,450.772,43.932,450.37,43.922z"/>
		<path fill="#F0F0F0" d="M407.668,15.667v0.231c0.122,0.044,0.244,0.086,0.368,0.152c14.111,7.526,28.223,15.052,42.334,22.578
			c14.111-7.526,28.223-15.051,42.334-22.577c0.328-0.175,0.651-0.265,0.964-0.298v-0.085H407.668z"/>
	</g>
	<path fill-rule="evenodd" clip-rule="evenodd" fill="#F0F0F0" d="M328.418,77.596v-51.49h-17.113v51.49H328.418L328.418,77.596z
		 M319.861,19.078c5.967,0,9.683-3.958,9.683-8.898c-0.112-5.051-3.716-8.896-9.568-8.896c-5.856,0-9.683,3.845-9.683,8.896
		c0,4.94,3.714,8.898,9.458,8.898H319.861L319.861,19.078z"/>
	<path fill-rule="evenodd" clip-rule="evenodd" fill="#F0F0F0" d="M337.889,77.596h17.115V48.843c0-1.539,0.11-3.077,0.564-4.177
		c1.234-3.075,4.051-6.26,8.779-6.26c6.193,0,8.671,4.724,8.671,11.644v27.546h17.113V48.072c0-15.816-8.444-23.175-19.705-23.175
		c-9.231,0-13.285,5.163-15.537,8.677h0.114v-7.468h-17.115C338.113,30.936,337.889,77.596,337.889,77.596L337.889,77.596z"/>
</g>
</svg>
