<?xml version="1.0" encoding="UTF-8" standalone="no"?>
<svg
   xmlns:dc="http://purl.org/dc/elements/1.1/"
   xmlns:cc="http://creativecommons.org/ns#"
   xmlns:rdf="http://www.w3.org/1999/02/22-rdf-syntax-ns#"
   xmlns:svg="http://www.w3.org/2000/svg"
   xmlns="http://www.w3.org/2000/svg"
   xmlns:sodipodi="http://sodipodi.sourceforge.net/DTD/sodipodi-0.dtd"
   xmlns:inkscape="http://www.inkscape.org/namespaces/inkscape"
   viewBox="0 0 750 185"
   height="185"
   width="750"
   xml:space="preserve"
   version="1.1"
   id="svg2"
   inkscape:version="0.91 r13725"
   sodipodi:docname="mParticle_logo.svg"><sodipodi:namedview
     pagecolor="#ffffff"
     bordercolor="#666666"
     borderopacity="1"
     objecttolerance="10"
     gridtolerance="10"
     guidetolerance="10"
     inkscape:pageopacity="0"
     inkscape:pageshadow="2"
     inkscape:window-width="1190"
     inkscape:window-height="735"
     id="namedview9"
     showgrid="false"
     inkscape:zoom="0.41333333"
     inkscape:cx="375"
     inkscape:cy="92.5"
     inkscape:window-x="4"
     inkscape:window-y="23"
     inkscape:window-maximized="0"
     inkscape:current-layer="svg2" /><metadata
     id="metadata8"><rdf:RDF><cc:Work
         rdf:about=""><dc:format>image/svg+xml</dc:format><dc:type
           rdf:resource="http://purl.org/dc/dcmitype/StillImage" /><dc:title></dc:title></cc:Work></rdf:RDF></metadata><defs
     id="defs6" /><g
     transform="matrix(1.25,0,0,-1.25,0,185)"
     id="g10"><g
       transform="scale(0.1,0.1)"
       id="g12"><path
         id="path14"
         style="fill:#ed1850;fill-opacity:1;fill-rule:nonzero;stroke:none"
         d="m 1542.29,856.98 -207.78,208.87 c -25.18,25.36 -66.16,25.47 -91.49,0.27 -25.34,-25.19 -25.46,-66.159 -0.27,-91.503 l 162.13,-162.957 -118.91,-118.082 -49,-48.66 c -25.35,-25.191 -25.49,-66.145 -0.31,-91.5 10.73,-10.813 24.37,-16.754 38.41,-18.391 2.5,-0.289 4.98,-0.718 7.49,-0.718 16.49,0 32.98,6.257 45.59,18.785 l 213.84,212.359 c 12.18,12.106 19.06,28.547 19.11,45.703 0.06,17.172 -6.71,33.653 -18.81,45.824 z M 1180.53,755.301 c 25.31,-25.317 25.31,-66.363 0,-91.68 -25.32,-25.316 -66.37,-25.316 -91.68,0 -0.55,0.539 -0.91,1.184 -1.43,1.738 l 0,0.004 -0.02,-0.027 -60.69,61.984 -157.296,-164.129 c -12.199,-12.734 -29.078,-19.937 -46.715,-19.937 -17.633,0 -34.508,7.203 -46.711,19.937 L 618.332,727.699 453.805,562.316 c -12.645,-12.703 -29.258,-19.062 -45.867,-19.062 -16.504,0 -33.004,6.273 -45.633,18.824 -25.328,25.207 -25.434,66.176 -0.239,91.504 l 211.258,212.359 c 12.301,12.356 28.778,19.473 46.477,19.067 17.422,-0.168 34.047,-7.356 46.105,-19.938 L 822.699,701.461 979.496,865.07 c 12.117,12.653 28.854,19.84 46.364,19.938 0.12,0 0.24,0 0.35,0 17.39,0 34.05,-7.004 46.23,-19.434 l 106.46,-108.738 -0.11,-0.113 c 0.55,-0.516 1.2,-0.879 1.74,-1.422" /><path
         id="path16"
         style="fill:#1c2c47;fill-opacity:1;fill-rule:nonzero;stroke:none"
         d="m 3623.06,744.129 c 0,0 0,-81.957 0,-87.211 0,-6.605 -0.79,-12.543 -0.79,-12.543 -10.87,-78.352 -101.96,-139.457 -201.67,-139.457 -109.28,0 -198.19,74.75 -198.19,166.629 0,91.891 88.91,166.652 198.19,166.652 19.12,0 43.24,-3.199 57.74,-7.48 14.51,-4.281 28.34,-16.985 28.34,-33.91 0,-19.004 -15.45,-35.61 -34.41,-34.407 -11.4,0.723 -37.29,6.953 -51.67,6.953 -41.39,0 -79.2,-14.101 -103.74,-38.695 -16.93,-16.957 -25.85,-37.39 -25.81,-59.097 0.1,-54.04 57.3,-97.993 127.49,-97.993 l 2.23,0.032 c 43.76,0.582 82.19,14.695 105.44,38.644 16.03,16.512 24.31,37.106 23.94,59.418 -0.06,4.16 0.82,136.816 0.86,142.41 C 3549.69,890.805 3506.21,930 3421.77,930 l -1.41,0 c -40.97,0 -81.11,-9.812 -119.27,-27.965 -0.39,-0.191 -5.07,-2.347 -8.54,-3.164 -3.48,-0.816 -4.63,-0.715 -6.96,-0.715 -17.59,0 -31.04,10.899 -33.5,26.992 -0.57,2.571 -0.78,4.985 -0.78,7.379 0,14.211 8.4,26.621 21.82,31.899 0.04,0.019 1.08,0.387 2.08,0.812 37.78,16.211 96.71,32.918 147.85,32.918 62.61,0 114.79,-18.066 148.95,-52.25 31.17,-31.136 51.05,-74.058 51.05,-120.875 l 0,-80.902 z m 1819.17,260.781 c -124.1,0 -221.31,-106.863 -221.31,-243.281 0,-137.734 98.05,-241.598 228.07,-241.598 73.61,0 127.46,22.446 180.07,75.059 0.5,0.496 1.65,2.023 1.88,2.293 6.57,6.43 10.24,15.14 10.24,24.426 0,18.953 -15.42,34.371 -34.37,34.371 -12.97,0 -22.5,-7.5 -26.37,-11.375 -38.71,-38.707 -80.02,-56.032 -128.49,-56.032 -81.61,0 -146.92,57.036 -158.84,138.7 -0.06,0.277 -3.44,16.816 -3.44,37.531 0,20.726 2.29,33.746 2.32,33.875 9.73,62.594 53.38,104.719 90.99,123.285 0.94,0.469 7.34,3.422 9.5,4.281 15.16,6.301 30.72,9.493 46.28,9.493 43.07,0 75.96,-12.622 100.54,-38.583 13.12,-13.867 30.09,-37.824 38.4,-60.089 6.48,-17.348 9.04,-32.844 9.85,-38.774 l -194.85,0 c 0,0 -3.95,-0.004 -5.83,-0.004 -18.95,0 -34.37,-12.617 -34.37,-36.019 0,-23.406 20.09,-32.707 34.37,-32.707 l 5.83,0 227.16,-0.008 c 16.79,0 25.54,8.996 27.73,11.34 2.18,2.344 9.17,11.25 9.17,23.918 0,139.004 -90.22,239.898 -214.53,239.898 z m -1030.2,-6.398 c -18.96,0 -34.38,-15.418 -34.38,-34.371 0,-0.422 0,-3.739 0,-3.739 l 0,-395.531 c 0,0 0,-8.07 0,-9.711 0,-18.953 15.42,-34.371 34.38,-34.371 18.95,0 34.58,15.418 34.58,34.371 0,0.516 0,9.371 0,9.371 l 0,398.289 c 0,0 -0.28,4.942 -0.85,7.59 -2.97,16.262 -17.17,28.102 -33.73,28.102 z m 41.43,97.458 c 0,-22.84 -18.59,-41.43 -41.43,-41.43 -22.85,0 -41.43,18.59 -41.43,41.43 0,22.84 18.58,41.43 41.43,41.43 22.84,0 41.43,-18.59 41.43,-41.43 z M 4258.09,925.613 c 2.66,0 5.38,0.352 8.54,1.106 0.48,0.109 0.94,0.258 1.39,0.398 l 0.58,0.184 c 1.16,0.304 2.36,0.648 3.51,1.094 8.47,3.269 15.19,9.617 18.92,17.871 0.05,0.07 0.2,0.363 0.24,0.437 0.38,0.848 0.66,1.774 0.93,2.703 l 0.28,0.938 0.31,0.929 c 0.24,0.692 0.47,1.387 0.62,2.122 0.1,0.464 0.14,0.957 0.18,1.445 0.02,0.246 0.03,0.492 0.07,0.734 l 0.11,0.789 c 0.19,1.231 0.36,2.461 0.36,3.742 0,19.239 -15.41,34.657 -34.37,34.657 -0.09,0 -0.59,-0.047 -0.68,-0.059 -0.09,0.012 -0.9,0.067 -0.99,0.067 l -124.43,0 0,107.26 c 0,11.25 -5.1,20.82 -13.63,27.43 -6.34,4.84 -13.51,7.3 -20.96,7.3 -18.95,0 -34.37,-15.42 -34.37,-34.37 0,-0.45 0,-4.1 0,-4.1 l 0,-440.704 c 0,-83.285 52.71,-135.023 137.55,-135.023 28.7,0 50.87,6.484 66.99,12.132 0.9,0.36 3.71,1.5 4.13,1.711 12.94,5.215 20.76,17.914 20.76,31.985 0,14.136 -8.52,26.66 -21.71,31.894 -4.14,1.645 -8.4,2.477 -12.66,2.477 -7.02,0 -15.61,-2.918 -22.85,-5.403 -6.5,-2.23 -14.28,-5.828 -27.88,-5.828 -28.72,0 -47.6,5.532 -59.43,17.414 -10.98,11.032 -16.05,27.825 -15.94,52.848 l 0,263.82 124.43,0 z m 865.18,177.407 c 0,18.7 -15.84,34.38 -34.48,34.38 -18.95,0 -34.37,-15.42 -34.37,-34.38 0,-0.4 -0.11,-3.99 -0.11,-4.73 l 0,-538.849 c 0,0 -0.01,-4.66 0,-4.75 0,-14.535 11.82,-34.66 34.48,-34.66 22.86,0 34.48,19.969 34.48,34.371 0,0.094 0,5.039 0,5.039 l 0,538.849 c 0,0 0,4.44 0,4.73 z M 3941.93,1000.16 c -0.33,0 -0.64,-0.04 -0.95,-0.08 l -0.61,0 c -0.31,0.04 -0.62,0.08 -0.94,0.08 -2.73,0 -5.49,-0.367 -8.68,-1.16 -0.23,-0.047 -0.58,-0.07 -0.93,-0.102 -0.66,-0.058 -1.34,-0.121 -1.98,-0.332 -9.42,-2.714 -57.87,-19.16 -74.37,-28.871 -21.39,-11.043 -41.35,-24.402 -60.94,-40.793 -6.23,-5.218 -12.5,-10.992 -19.18,-17.644 -36.69,-36.5 -60.74,-65.36 -60.74,-131.258 l 0,-220.559 c 0,0 0,-3.836 0,-4.281 0,-18.953 15.42,-34.371 34.37,-34.371 18.95,0 34.6,15.418 34.6,34.371 0,0.094 0,4.281 0,4.281 l 0,211.61 c 0,41.676 5.11,63.004 56.54,106.765 28.9,24.586 62.79,41.309 106.64,52.618 0.23,0.054 0.48,0.156 0.73,0.261 2.87,0.684 5.75,1.696 8.88,3.141 13.28,5.117 21.93,17.676 21.93,31.953 0,18.953 -15.42,34.371 -34.37,34.371 z m -1022.95,0.09 c -117.6,0 -217.31,-89.43 -231.93,-208.027 -0.07,-0.953 -1.56,-21.278 -1.56,-29.766 l 0,-380.457 c 0,0 0,-1.59 0,-3.359 0,-12.391 9.46,-34.371 34.37,-34.371 24.91,0 34.75,20.73 34.75,34.371 0,3.558 -0.06,3.359 -0.06,3.359 l 0,381.141 c 0,92.894 73.76,168.472 164.43,168.472 91.04,0 165.11,-75.883 165.11,-169.156 0,-93.273 -74.07,-169.156 -165.11,-169.156 -7.51,0 -36.09,4.012 -40.17,4.418 -18.86,1.886 -34.37,-15.418 -34.37,-34.371 0,-18.571 10.18,-31.004 32.99,-34.91 0,0 31.64,-3.778 41.55,-3.778 128.89,0 233.75,106.676 233.75,237.797 0,131.121 -104.86,237.793 -233.75,237.793 z m 1859.45,-64.074 c 58.52,0 102.19,-29.856 128.51,-54.899 0.96,-0.949 5.64,-4.91 5.96,-5.152 6.29,-5.328 13.93,-8.18 22.03,-8.18 18.95,0 34.37,15.418 34.37,34.371 0,14.403 -11.24,25.965 -11.24,25.965 0,0 -2.1,2.223 -3.48,3.598 -36.38,34.019 -88.96,73.031 -173.78,73.031 -130.43,0 -236.53,-109.519 -236.53,-244.137 0,-132.746 106.1,-240.742 236.53,-240.742 69.57,0 124.59,24.457 178.38,79.309 4.73,4.734 8.05,11.242 9.32,18.312 0.54,2.461 0.8,4.852 0.8,7.243 0,16.07 -10.96,29.82 -26.65,33.433 -3.14,0.84 -5.89,1.235 -8.59,1.235 -13.58,0 -22.37,-8.75 -25.25,-11.625 -38.56,-38.559 -81.95,-58.942 -125.48,-58.942 -92.32,0 -170.32,79.746 -170.32,174.145 0,93.793 75.75,173.035 165.42,173.035 z m -2389.28,63.062 c -68.5,0 -134.03,-35.613 -171.76,-93.129 -37.76,57.336 -103.21,92.829 -171.54,92.829 -113.24,0 -205.37,-92.133 -205.37,-205.379 l 0,-236.145 c 0,0 0,-2.062 0,-2.254 0,-18.953 15.53,-34.371 34.48,-34.371 18.95,0 34.37,15.418 34.37,34.371 0,0.094 0.1,2.254 0.1,2.254 l 0.01,236.305 -0.09,3.871 c 0.95,34.652 15.18,67.5 40.08,92.39 25.87,25.879 60.05,40.133 96.26,40.133 36.21,0 70.4,-14.254 96.27,-40.133 26.55,-26.55 41.17,-60.734 41.17,-96.261 l 0,-235.684 c 0,0 -0.01,-2.523 -0.01,-2.875 0,-18.953 15.42,-34.371 34.37,-34.371 18.95,0 34.37,15.418 34.37,34.371 0,0.336 0.01,2.875 0.01,2.875 l 0,235.848 c 0,35.633 14.56,69.82 41,96.258 25.9,25.882 60.09,40.136 96.28,40.136 36.18,0 70.37,-14.254 96.27,-40.136 25.88,-25.903 40.13,-60.086 40.13,-96.258 l 0.01,-236.469 c 0,0 0,16.063 0,-2.316 0,-19.317 17.47,-34.309 34.57,-34.309 18.95,0 34.37,15.418 34.37,34.371 0,0.293 0,2.254 0,2.254 l 0,236.469 c 0,113.234 -92.12,205.355 -205.35,205.355" /></g></g></svg>